<?xml version="1.0" encoding="UTF-8" standalone="no"?>
<!-- Created with Inkscape (http://www.inkscape.org/) -->

<svg
   xmlns:dc="http://purl.org/dc/elements/1.1/"
   xmlns:cc="http://creativecommons.org/ns#"
   xmlns:rdf="http://www.w3.org/1999/02/22-rdf-syntax-ns#"
   xmlns:svg="http://www.w3.org/2000/svg"
   xmlns="http://www.w3.org/2000/svg"
   xmlns:sodipodi="http://sodipodi.sourceforge.net/DTD/sodipodi-0.dtd"
   xmlns:inkscape="http://www.inkscape.org/namespaces/inkscape"
   version="1.1"
   width="24"
   height="24"
   id="svg4314"
   inkscape:version="0.47 r22583"
   sodipodi:docname="orange.svg">
  <metadata
     id="metadata19">
    <rdf:RDF>
      <cc:Work
         rdf:about="">
        <dc:format>image/svg+xml</dc:format>
        <dc:type
           rdf:resource="http://purl.org/dc/dcmitype/StillImage" />
        <dc:title></dc:title>
      </cc:Work>
    </rdf:RDF>
  </metadata>
  <sodipodi:namedview
     pagecolor="#ffffff"
     bordercolor="#666666"
     borderopacity="1"
     objecttolerance="10"
     gridtolerance="10"
     guidetolerance="10"
     inkscape:pageopacity="0"
     inkscape:pageshadow="2"
     inkscape:window-width="1280"
     inkscape:window-height="973"
     id="namedview17"
     showgrid="false"
     inkscape:zoom="19.666667"
     inkscape:cx="7.2231947"
     inkscape:cy="15.119719"
     inkscape:window-x="0"
     inkscape:window-y="0"
     inkscape:window-maximized="1"
     inkscape:current-layer="svg4314" />
  <defs
     id="defs4316">
    <inkscape:perspective
       sodipodi:type="inkscape:persp3d"
       inkscape:vp_x="0 : 12 : 1"
       inkscape:vp_y="0 : 1000 : 0"
       inkscape:vp_z="24 : 12 : 1"
       inkscape:persp3d-origin="12 : 8 : 1"
       id="perspective21" />
    <inkscape:perspective
       id="perspective2835"
       inkscape:persp3d-origin="0.5 : 0.33333333 : 1"
       inkscape:vp_z="1 : 0.5 : 1"
       inkscape:vp_y="0 : 1000 : 0"
       inkscape:vp_x="0 : 0.5 : 1"
       sodipodi:type="inkscape:persp3d" />
  </defs>
  <path
     d="m 11.830499,6.3491389 c -3.8663747,0 -6.9722411,3.3031575 -6.9722411,7.3834441 0,4.080284 3.1058664,7.383442 6.9722411,7.383442 3.866372,0 7.01781,-3.303158 7.01781,-7.383442 0,-4.0802867 -3.151438,-7.3834441 -7.01781,-7.3834441 z m 0.02279,1.1286791 c 3.361329,0 6.08362,2.809398 6.08362,6.278278 0,3.468882 -2.722291,6.278278 -6.08362,6.278278 -3.3613295,0 -6.0836224,-2.809396 -6.0836224,-6.278278 0,-3.46888 2.7222929,-6.278278 6.0836224,-6.278278 z"
     id="path6630-7-94-9-9-8-3"
     style="fill:#333333;fill-opacity:1;fill-rule:nonzero;stroke:none" />
  <path
     d="m 18.439132,13.961126 a 6.5858485,6.7965746 0 0 1 -13.1716971,0 6.5858485,6.7965746 0 1 1 13.1716971,0 z"
     id="path4102"
     style="fill:#ffff00;fill-opacity:1;fill-rule:nonzero;stroke:none" />
  <g
     id="g3685"
     transform="translate(0.01665738,0)">
    <path
       style="fill:#333333;fill-opacity:1;fill-rule:nonzero;stroke:none"
       id="path3634-7-5-3-6-29"
       d="m 8.8197255,11.660846 a 1.1243982,1.2541868 0 0 1 -2.2487963,0 1.1243982,1.2541868 0 1 1 2.2487963,0 z" />
    <path
       style="fill:#333333;fill-opacity:1;fill-rule:nonzero;stroke:none"
       id="path3634-7-5-3-6-29-5"
       d="m 17.102323,11.660472 a 1.1243985,1.2541871 0 0 1 -2.248797,0 1.1243985,1.2541871 0 1 1 2.248797,0 z" />
  </g>
  <g
     id="g3689"
     transform="translate(-0.04608951,0)">
    <path
       style="fill:#333333;fill-opacity:1;fill-rule:nonzero;stroke:none"
       id="path3634-7-5-3-6-1-9"
       d="M 10.633881,16.267498 A 1.9534897,1.3411269 63.011998 0 1 8.5053639,17.944221 1.9534897,1.3411269 63.011998 1 1 10.633881,16.267498 z" />
    <path
       style="fill:#333333;fill-opacity:1;fill-rule:nonzero;stroke:none"
       id="path3634-7-5-3-6-1-9-9"
       d="m 13.164324,16.268353 a 1.3411268,1.9534895 26.988002 0 0 2.128517,1.676722 1.3411268,1.9534895 26.988002 1 0 -2.128517,-1.676722 z" />
  </g>
  <g
     id="g3676"
     transform="translate(-0.20349805,0)">
    <g
       id="g3629">
      <path
         d="m 14.621253,12.719277 a 1.2732906,1.4202657 0 0 1 -2.546581,0 1.2732906,1.4202657 0 1 1 2.546581,0 z"
         id="path3634-7-5-3-1"
         style="fill:#333333;fill-opacity:1;fill-rule:nonzero;stroke:none" />
      <path
         d="m 12.038891,12.719277 a 1.2732906,1.4202657 0 0 1 -2.546581,0 1.2732906,1.4202657 0 1 1 2.546581,0 z"
         id="path3634-7-5-3-1-2"
         style="fill:#333333;fill-opacity:1;fill-rule:nonzero;stroke:none" />
    </g>
    <g
       transform="translate(0.203498,0)"
       id="g3671">
      <path
         d="m 13.126574,13.797805 a 1.2732906,1.4202657 0 0 1 -2.546581,0 1.2732906,1.4202657 0 1 1 2.546581,0 z"
         id="path3634-7-5-3-1-3"
         style="fill:#333333;fill-opacity:1;fill-rule:nonzero;stroke:none" />
      <path
         d="m 13.126574,12.078789 a 1.2732906,1.4202657 0 0 1 -2.546581,0 1.2732906,1.4202657 0 1 1 2.546581,0 z"
         id="path3634-7-5-3-1-2-1"
         style="fill:#333333;fill-opacity:1;fill-rule:nonzero;stroke:none" />
      <path
         style="fill:none;stroke:#333333;stroke-width:0.64195806px;stroke-linecap:butt;stroke-linejoin:miter;stroke-opacity:1"
         d="m 11.853283,12.915254 0,8.135593"
         id="path2829" />
    </g>
  </g>
  <g
     id="g3663"
     transform="translate(-0.1538617,0)">
    <g
       id="g3657">
      <path
         d="m 9.7192269,7.539064 a 2.6418597,2.4528343 0 1 1 4.5758361,-10e-8"
         id="path3634-7"
         style="fill:#333333;fill-opacity:1;fill-rule:nonzero;stroke:#666666;stroke-width:0.85100001;stroke-miterlimit:4;stroke-dasharray:none" />
      <g
         id="g3635">
        <path
           style="fill:none;stroke:#333333;stroke-width:0.90806347px;stroke-linecap:butt;stroke-linejoin:miter;stroke-opacity:1"
           id="path3796"
           d="M 8.9448573,4.0732903 C 9.9187041,3.0401112 10.687082,2.7361632 10.622798,5.3874088" />
        <path
           style="fill:none;stroke:#333333;stroke-width:0.90806347px;stroke-linecap:butt;stroke-linejoin:miter;stroke-opacity:1"
           id="path3796-7"
           d="M 15.069433,4.0732901 C 14.095587,3.0401111 13.327209,2.7361632 13.391493,5.3874088" />
      </g>
    </g>
    <path
       transform="matrix(0.94693094,0,0,0.51655541,33.577911,9.6903102)"
       d="m -19.322034,-3.3050847 c 0,1.937677 -1.548032,3.50847458 -3.457627,3.50847458 -1.909595,0 -3.457627,-1.57079758 -3.457627,-3.50847458 0,-1.937677 1.548032,-3.5084746 3.457627,-3.5084746 1.909595,0 3.457627,1.5707976 3.457627,3.5084746 z"
       sodipodi:ry="3.5084746"
       sodipodi:rx="3.4576271"
       sodipodi:cy="-3.3050847"
       sodipodi:cx="-22.779661"
       id="path2851"
       style="fill:#333333;fill-opacity:1"
       sodipodi:type="arc" />
  </g>
</svg>
